<svg width="1000" height="133" viewBox="0 0 1000 133" fill="none" xmlns="http://www.w3.org/2000/svg">
<g clip-path="url(#clip0_481_564)">
<path d="M47.8861 49.0402L7.38765 39.7219C-12.4049 35.1679 -33.1901 40.0569 -48.8773 52.9563C-96.3413 91.9854 -68.7432 169 -7.29323 169H963.265C1035.22 169 1057.02 71.3058 991.894 40.7127C980.469 35.3458 967.765 33.2984 955.232 34.8042L780.059 55.8498C765.433 57.607 750.628 57.2001 736.12 54.642L593.281 29.4563C571.047 25.536 548.216 26.6851 526.488 32.818L480.479 45.8044C451.187 54.0721 420.074 53.2337 391.27 43.4005L312.079 16.3655C280.983 5.74967 247.261 5.63812 216.095 16.048L129.015 45.1343C102.846 53.8751 74.7734 55.2266 47.8861 49.0402Z" fill="#fff8f8"/>
</g>
<defs>
<clipPath id="clip0_481_564">
<rect width="1000" height="133" fill="#FFFAF0"/>
</clipPath>
</defs>
</svg>
